<svg width="119" height="30" viewBox="0 0 119 30" fill="none" xmlns="http://www.w3.org/2000/svg">
<g clip-path="url(#clip0_629_466)">
<path fill-rule="evenodd" clip-rule="evenodd" d="M38.168 23.6214L39.6476 20.1832C41.2457 21.3782 43.3751 21.9995 45.4759 21.9995C47.0266 21.9995 48.0083 21.4019 48.0083 20.4962C47.9846 17.9638 38.7181 19.9461 38.6469 13.5961C38.6232 10.3713 41.4876 7.88631 45.547 7.88631C47.9609 7.88631 50.37 8.48384 52.0915 9.84489L50.7067 13.3542C49.1322 12.3488 47.1737 11.6327 45.3099 11.6327C44.0437 11.6327 43.2091 12.2303 43.2091 12.9938C43.2328 15.4788 52.5704 14.1177 52.6653 20.1832C52.6653 23.4791 49.872 25.7981 45.86 25.7981C42.9198 25.7933 40.2214 25.101 38.168 23.6214V23.6214ZM94.9859 18.9407C94.246 20.2306 92.8613 21.1127 91.2584 21.1127C88.8919 21.1127 86.9855 19.2015 86.9855 16.8398C86.9855 14.4781 88.8967 12.567 91.2584 12.567C92.8565 12.567 94.246 13.4491 94.9859 14.739L99.069 12.4721C97.542 9.75004 94.6017 7.88631 91.2584 7.88631C86.3121 7.88631 82.3001 11.8983 82.3001 16.8446C82.3001 21.7908 86.3121 25.8028 91.2584 25.8028C94.6254 25.8028 97.542 23.9628 99.069 21.217L94.9859 18.9407ZM54.7187 0.455078H59.8309V25.4614H54.7187V0.455078ZM101.075 0.455078V25.4614H106.187V17.959L112.253 25.4614H118.797L111.081 16.5505L118.223 8.23724H111.963L106.182 15.1373V0.455078H101.075Z" fill="#070F18"/>
<path d="M75.0206 18.9884C74.2808 20.2072 72.7538 21.1129 71.0323 21.1129C68.6659 21.1129 66.7595 19.2018 66.7595 16.8401C66.7595 14.4784 68.6707 12.5673 71.0323 12.5673C72.7538 12.5673 74.2808 13.5205 75.0206 14.763V18.9884ZM75.0206 8.24225V10.272C74.186 8.8635 72.1088 7.88184 69.9321 7.88184C65.4411 7.88184 61.9081 11.8464 61.9081 16.8164C61.9081 21.7864 65.4411 25.7984 69.9321 25.7984C72.1041 25.7984 74.1812 24.8215 75.0206 23.4082V25.438H80.1329V8.24225H75.0206Z" fill="#070F18"/>
<path fill-rule="evenodd" clip-rule="evenodd" d="M6.56975 18.9642C6.56975 20.7094 5.16128 22.1179 3.4161 22.1179C1.67092 22.1179 0.262451 20.7046 0.262451 18.9642C0.262451 17.2238 1.67092 15.8105 3.4161 15.8105H6.56975V18.9642ZM8.14421 18.9642C8.14421 17.219 9.55268 15.8105 11.2979 15.8105C13.043 15.8105 14.4515 17.219 14.4515 18.9642V26.846C14.4515 28.5912 13.043 29.9996 11.2979 29.9996C9.55268 29.9996 8.14421 28.5912 8.14421 26.846V18.9642Z" fill="#070F18"/>
<path fill-rule="evenodd" clip-rule="evenodd" d="M11.2979 6.3073C9.55271 6.3073 8.14424 4.89883 8.14424 3.15365C8.14424 1.40847 9.55271 0 11.2979 0C13.0431 0 14.4515 1.40847 14.4515 3.15365V6.3073H11.2979ZM11.2979 7.90547C13.0431 7.90547 14.4515 9.31394 14.4515 11.0591C14.4515 12.8043 13.0431 14.2128 11.2979 14.2128H3.39242C1.64724 14.2128 0.23877 12.7996 0.23877 11.0591C0.23877 9.31868 1.64724 7.90547 3.39242 7.90547H11.2979Z" fill="#070F18"/>
<path fill-rule="evenodd" clip-rule="evenodd" d="M23.9314 11.0591C23.9314 9.31394 25.3399 7.90547 27.0851 7.90547C28.8303 7.90547 30.2387 9.31394 30.2387 11.0591C30.2387 12.8043 28.8303 14.2128 27.0851 14.2128H23.9314V11.0591ZM22.357 11.0591C22.357 12.8043 20.9485 14.2128 19.2033 14.2128C17.4582 14.2128 16.0497 12.8043 16.0497 11.0591V3.15365C16.0497 1.40847 17.4582 0 19.2033 0C20.9485 0 22.357 1.40847 22.357 3.15365V11.0591Z" fill="#070F18"/>
<path fill-rule="evenodd" clip-rule="evenodd" d="M19.2033 23.6923C20.9485 23.6923 22.357 25.1008 22.357 26.846C22.357 28.5912 20.9485 29.9996 19.2033 29.9996C17.4582 29.9996 16.0497 28.5912 16.0497 26.846V23.6923H19.2033ZM19.2033 22.1179C17.4582 22.1179 16.0497 20.7094 16.0497 18.9642C16.0497 17.219 17.4582 15.8105 19.2033 15.8105H27.1088C28.854 15.8105 30.2625 17.219 30.2625 18.9642C30.2625 20.7094 28.854 22.1179 27.1088 22.1179H19.2033Z" fill="#070F18"/>
</g>
<defs>
<clipPath id="clip0_629_466">
<rect width="118.558" height="30" fill="white" transform="translate(0.23877)"/>
</clipPath>
</defs>
</svg>
