<svg width="93" height="30" viewBox="0 0 93 30" fill="none" xmlns="http://www.w3.org/2000/svg">
<g clip-path="url(#clip0_629_474)">
<path d="M12.1406 0.00292969H12.9579C15.7955 0.0646154 18.5867 1.2058 20.5915 3.22601C19.8513 3.98166 19.0957 4.70646 18.3708 5.46211C17.2451 4.4443 15.888 3.65781 14.4075 3.38022C12.2177 2.91758 9.85821 3.33396 8.02306 4.58309C6.01827 5.89391 4.66119 8.1146 4.36818 10.4895C4.04433 12.8336 4.70745 15.301 6.23417 17.1207C7.69921 18.8942 9.93532 20.0045 12.2485 20.0816C14.4075 20.205 16.6591 19.5419 18.2321 18.0306C19.4658 16.9665 20.0364 15.3472 20.2214 13.7743C17.6615 13.7743 15.1015 13.7897 12.5415 13.7743V10.5974H23.3211C23.8763 14.0056 23.0744 17.8455 20.4836 20.2821C18.7564 22.0093 16.3661 23.0271 13.9295 23.2276C11.57 23.4589 9.13341 23.0117 7.03609 21.8705C4.5224 20.5288 2.51761 18.2619 1.53064 15.594C0.605349 13.142 0.589928 10.3661 1.45353 7.8987C2.24002 5.64717 3.75132 3.65781 5.69442 2.26988C7.56042 0.897372 9.82737 0.141722 12.1406 0.00292969Z" fill="#070F18"/>
<path d="M73.9807 0.804688H77.2809V22.8265C76.186 22.8265 75.0756 22.8419 73.9807 22.8111C73.9961 15.4859 73.9807 8.14529 73.9807 0.804688V0.804688Z" fill="#070F18"/>
<path d="M30.6619 8.43856C32.6975 8.05302 34.9028 8.48482 36.5837 9.70311C38.1105 10.7826 39.1746 12.479 39.4984 14.3295C39.9148 16.4731 39.3905 18.8172 38.0025 20.5135C36.5066 22.4104 34.0546 23.4282 31.6643 23.274C29.4745 23.1506 27.3463 22.0557 26.0509 20.2668C24.5859 18.2928 24.2312 15.5787 25.0331 13.2655C25.835 10.7826 28.1019 8.88578 30.6619 8.43856V8.43856ZM31.1246 11.3686C30.2918 11.5845 29.5207 12.0626 28.9655 12.7411C27.4697 14.53 27.5622 17.4447 29.2123 19.1102C30.153 20.0663 31.5718 20.5135 32.8826 20.2514C34.1009 20.0355 35.165 19.2181 35.751 18.1386C36.7688 16.3035 36.4758 13.7744 34.9182 12.3402C33.9158 11.4149 32.4508 11.0294 31.1246 11.3686Z" fill="#070F18"/>
<path d="M47.0086 8.43774C49.3372 7.99052 51.8818 8.63822 53.6244 10.2729C56.4619 12.8174 56.7704 17.5827 54.3492 20.5127C52.8842 22.3633 50.5093 23.3811 48.1652 23.2732C45.9291 23.2115 43.7239 22.1011 42.3976 20.266C40.9017 18.2458 40.5779 15.4699 41.4261 13.1104C42.2742 10.7047 44.4949 8.86954 47.0086 8.43774V8.43774ZM47.4713 11.3678C46.6385 11.5837 45.8674 12.0618 45.3123 12.7249C43.8318 14.4829 43.8935 17.3513 45.4819 19.0323C46.4226 20.0347 47.8876 20.5281 49.2447 20.2506C50.4476 20.0192 51.5271 19.2173 52.1131 18.1378C53.1155 16.2873 52.8225 13.7581 51.2495 12.3239C50.2471 11.3987 48.7821 11.0285 47.4713 11.3678Z" fill="#070F18"/>
<path d="M60.8725 9.33266C62.646 8.22232 65.0055 7.91389 66.9177 8.87002C67.5192 9.13218 68.0127 9.57941 68.4907 10.0266C68.5061 9.61025 68.4907 9.17845 68.5061 8.74665C69.5394 8.76207 70.5726 8.74665 71.6213 8.76207V22.3638C71.6059 24.4148 71.0815 26.5893 69.6011 28.0851C67.9818 29.7352 65.499 30.2441 63.2629 29.9049C60.8725 29.5502 58.7906 27.8075 57.8653 25.6023C58.7906 25.1551 59.7622 24.8004 60.7183 24.384C61.2581 25.6485 62.353 26.728 63.7255 26.9748C65.098 27.2215 66.6864 26.8823 67.5809 25.7411C68.537 24.569 68.537 22.9652 68.4907 21.531C67.7813 22.225 66.964 22.8418 65.977 23.0732C63.8334 23.6746 61.474 22.9344 59.8239 21.4848C58.1584 20.0351 57.1714 17.799 57.2639 15.5783C57.3102 13.0647 58.729 10.6435 60.8725 9.33266V9.33266ZM64.0648 11.3066C63.1241 11.4608 62.245 11.9851 61.6436 12.71C60.194 14.4372 60.194 17.1976 61.659 18.894C62.4918 19.8963 63.8334 20.4515 65.1288 20.3127C66.3471 20.1894 67.4729 19.4183 68.0743 18.3542C69.0922 16.5499 68.9225 14.0979 67.55 12.5249C66.7018 11.5533 65.3447 11.0753 64.0648 11.3066V11.3066Z" fill="#070F18"/>
<path d="M81.2442 10.119C83.0948 8.39182 85.9478 7.8058 88.3227 8.71567C90.5742 9.56385 92.0084 11.7074 92.7332 13.9127C89.3868 15.3006 86.0557 16.6731 82.7093 18.0611C83.1719 18.9401 83.8813 19.742 84.8374 20.0659C86.1791 20.5439 87.7829 20.3743 88.9087 19.4798C89.3559 19.1406 89.7106 18.6933 90.0499 18.2615C90.8981 18.8321 91.7463 19.3873 92.5944 19.9579C91.3916 21.7622 89.3713 23.0268 87.1969 23.2273C84.7912 23.5203 82.2312 22.595 80.6736 20.7136C78.1137 17.7526 78.3604 12.7869 81.2442 10.119V10.119ZM82.8943 12.972C82.37 13.7276 82.1541 14.6529 82.1695 15.5628C84.4056 14.6375 86.6417 13.7122 88.8779 12.7715C88.5077 11.9079 87.6133 11.3836 86.7034 11.2448C85.2384 10.9826 83.7117 11.7691 82.8943 12.972V12.972Z" fill="#070F18"/>
</g>
<defs>
<clipPath id="clip0_629_474">
<rect width="91.9118" height="30" fill="white" transform="translate(0.821411)"/>
</clipPath>
</defs>
</svg>
